<svg width="30" height="30" viewBox="0 0 30 30" fill="none" xmlns="http://www.w3.org/2000/svg">
<rect width="30" height="30" rx="15" fill="#1CBECB"/>
<path d="M14.9999 7.20007C16.0343 7.20007 17.0262 7.61096 17.7576 8.34236C18.489 9.07375 18.8999 10.0657 18.8999 11.1001C18.8999 12.1344 18.489 13.1264 17.7576 13.8578C17.0262 14.5892 16.0343 15.0001 14.9999 15.0001C13.9656 15.0001 12.9736 14.5892 12.2422 13.8578C11.5108 13.1264 11.0999 12.1344 11.0999 11.1001C11.0999 10.0657 11.5108 9.07375 12.2422 8.34236C12.9736 7.61096 13.9656 7.20007 14.9999 7.20007ZM14.9999 16.9501C19.3094 16.9501 22.7999 18.6953 22.7999 20.8501V22.8001H7.19991V20.8501C7.19991 18.6953 10.6904 16.9501 14.9999 16.9501Z" fill="white"/>
</svg>
