<svg width="50" height="50" viewBox="0 0 50 50" fill="none" xmlns="http://www.w3.org/2000/svg">
<path d="M12.5156 48.3086C12.2523 48.1762 12.0458 47.9529 11.9345 47.68C11.8232 47.407 11.8145 47.103 11.9102 46.8242L13.4805 42.2266L16.5547 44.3008L14.0703 47.9102C13.9028 48.1529 13.6532 48.3269 13.3675 48.4002C13.0818 48.4734 12.7793 48.4409 12.5156 48.3086ZM37.25 48.3086C37.793 48.0352 38.0547 47.4023 37.8555 46.8242L36.2656 42.1719L33.0274 44.0352L35.6953 47.9102C35.8628 48.1529 36.1124 48.3269 36.3982 48.4002C36.6839 48.4734 36.9864 48.4409 37.25 48.3086Z" fill="#82AEC0"/>
<path d="M13.4805 42.2266L12.6797 44.5703C13.1758 44.2852 13.8242 44.3125 14.3398 44.5664C14.8555 44.8203 15.25 45.2656 15.5508 45.7578L16.4609 44.4375C16.4609 44.3828 13.4805 42.2266 13.4805 42.2266ZM36.2773 42.168L37.1445 44.7461C36.6484 44.4609 36.0547 44.4688 35.5352 44.7227C35.0195 44.9766 34.625 45.4219 34.3242 45.9141L33.1328 44.1836L36.2773 42.168Z" fill="#2F7889"/>
<path d="M24.8828 45.2891C33.9459 45.2891 41.293 37.942 41.293 28.8789C41.293 19.8158 33.9459 12.4688 24.8828 12.4688C15.8197 12.4688 8.47266 19.8158 8.47266 28.8789C8.47266 37.942 15.8197 45.2891 24.8828 45.2891Z" fill="#FFEFA1"/>
<path d="M24.8828 46.7109C35.5316 46.7109 44.1641 38.0784 44.1641 27.4297C44.1641 16.7809 35.5316 8.14844 24.8828 8.14844C14.2341 8.14844 5.60156 16.7809 5.60156 27.4297C5.60156 38.0784 14.2341 46.7109 24.8828 46.7109Z" fill="#CC2929"/>
<path d="M24.8828 46.5234C34.893 46.5234 43.0078 38.4086 43.0078 28.3984C43.0078 18.3883 34.893 10.2734 24.8828 10.2734C14.8727 10.2734 6.75781 18.3883 6.75781 28.3984C6.75781 38.4086 14.8727 46.5234 24.8828 46.5234Z" fill="#FF4638"/>
<path d="M24.8828 44.0352C33.5187 44.0352 40.5195 37.0344 40.5195 28.3984C40.5195 19.7625 33.5187 12.7617 24.8828 12.7617C16.2469 12.7617 9.24609 19.7625 9.24609 28.3984C9.24609 37.0344 16.2469 44.0352 24.8828 44.0352Z" fill="#FAFAFA"/>
<path d="M25 30.1367C25.96 30.1367 26.7383 29.3585 26.7383 28.3984C26.7383 27.4384 25.96 26.6602 25 26.6602C24.04 26.6602 23.2617 27.4384 23.2617 28.3984C23.2617 29.3585 24.04 30.1367 25 30.1367Z" fill="#563428"/>
<path d="M24.8828 16.6289C24.5664 16.6289 24.3086 16.3711 24.3086 16.0547V14.3359C24.3086 14.0195 24.5664 13.7617 24.8828 13.7617C25.1992 13.7617 25.457 14.0195 25.457 14.3359V16.0547C25.457 16.3711 25.1992 16.6289 24.8828 16.6289ZM24.8828 43.0313C24.5664 43.0313 24.3086 42.7734 24.3086 42.457V40.7383C24.3086 40.4219 24.5664 40.1641 24.8828 40.1641C25.1992 40.1641 25.457 40.4219 25.457 40.7383V42.457C25.457 42.7734 25.1992 43.0313 24.8828 43.0313ZM38.9414 28.9688H37.2227C36.9063 28.9688 36.6484 28.7109 36.6484 28.3945C36.6484 28.0781 36.9063 27.8203 37.2227 27.8203H38.9414C39.2578 27.8203 39.5156 28.0781 39.5156 28.3945C39.5156 28.7148 39.2578 28.9688 38.9414 28.9688ZM12.543 28.9688H10.8242C10.5078 28.9688 10.25 28.7109 10.25 28.3945C10.25 28.0781 10.5078 27.8203 10.8242 27.8203H12.543C12.8594 27.8203 13.1172 28.0781 13.1172 28.3945C13.1172 28.7148 12.8594 28.9688 12.543 28.9688Z" fill="#B2947C"/>
<path d="M24.8828 16.6289C24.5664 16.6289 24.3086 16.3711 24.3086 16.0547V14.3359C24.3086 14.0195 24.5664 13.7617 24.8828 13.7617C25.1992 13.7617 25.457 14.0195 25.457 14.3359V16.0547C25.457 16.3711 25.1992 16.6289 24.8828 16.6289ZM24.8828 43.0313C24.5664 43.0313 24.3086 42.7734 24.3086 42.457V40.7383C24.3086 40.4219 24.5664 40.1641 24.8828 40.1641C25.1992 40.1641 25.457 40.4219 25.457 40.7383V42.457C25.457 42.7734 25.1992 43.0313 24.8828 43.0313ZM18.2148 17.9961L17.3555 16.5078C17.1953 16.2344 17.2891 15.8828 17.5664 15.7227C17.8398 15.5625 18.1914 15.6563 18.3516 15.9336L19.2109 17.4219C19.3711 17.6953 19.2773 18.0469 19 18.207C18.7266 18.3633 18.375 18.2695 18.2148 17.9961ZM31.418 40.8594L30.5586 39.3711C30.3984 39.0977 30.4961 38.7461 30.7695 38.5859C31.043 38.4258 31.3945 38.5234 31.5547 38.7969L32.4141 40.2852C32.5742 40.5586 32.4766 40.9102 32.2031 41.0703C31.9258 41.2266 31.5742 41.1328 31.418 40.8594Z" fill="#B2947C"/>
<path d="M18.2149 17.9961L17.3555 16.5078C17.1953 16.2344 17.2891 15.8828 17.5664 15.7227C17.8399 15.5625 18.1914 15.6563 18.3516 15.9336L19.2109 17.4219C19.3711 17.6953 19.2774 18.0469 19 18.207C18.7266 18.3633 18.375 18.2695 18.2149 17.9961ZM31.418 40.8594L30.5586 39.3711C30.3984 39.0977 30.4961 38.7461 30.7695 38.5859C31.043 38.4258 31.3945 38.5234 31.5547 38.7969L32.4141 40.2852C32.5742 40.5586 32.4766 40.9102 32.2031 41.0703C31.9258 41.2266 31.5742 41.1328 31.418 40.8594ZM13.9102 22.7227L12.4219 21.8633C12.1484 21.7031 12.0547 21.3555 12.2109 21.0781C12.3711 20.8047 12.7188 20.7109 12.9961 20.8672L14.4844 21.7266C14.7578 21.8867 14.8516 22.2344 14.6953 22.5117C14.5352 22.7891 14.1836 22.8828 13.9102 22.7227ZM36.7734 35.9219L35.2852 35.0625C35.0117 34.9023 34.918 34.5547 35.0742 34.2773C35.2344 34.0039 35.582 33.9102 35.8594 34.0664L37.3477 34.9258C37.6211 35.0859 37.7149 35.4336 37.5586 35.7109C37.3984 35.9883 37.0469 36.082 36.7734 35.9219ZM30.7656 18.207C30.4922 18.0469 30.3984 17.6992 30.5547 17.4219L31.4141 15.9336C31.5742 15.6602 31.9219 15.5664 32.1992 15.7227C32.4727 15.8828 32.5664 16.2305 32.4102 16.5078L31.5508 17.9961C31.3906 18.2695 31.043 18.3633 30.7656 18.207ZM17.5664 41.0703C17.293 40.9102 17.1992 40.5625 17.3555 40.2852L18.2149 38.7969C18.375 38.5234 18.7227 38.4297 19 38.5859C19.2734 38.7461 19.3672 39.0938 19.2109 39.3711L18.3516 40.8594C18.1914 41.1328 17.8399 41.2266 17.5664 41.0703ZM35.0742 22.5117C34.9141 22.2383 35.0078 21.8867 35.2852 21.7266L36.7734 20.8672C37.0469 20.707 37.3984 20.8047 37.5586 21.0781C37.7188 21.3516 37.6211 21.7031 37.3477 21.8633L35.8594 22.7227C35.582 22.8828 35.2305 22.7891 35.0742 22.5117ZM12.2109 35.7148C12.0508 35.4414 12.1484 35.0898 12.4219 34.9297L13.9102 34.0703C14.1836 33.9102 14.5352 34.0078 14.6953 34.2813C14.8555 34.5547 14.7578 34.9063 14.4844 35.0664L12.9961 35.9258C12.7188 36.082 12.3672 35.9883 12.2109 35.7148Z" fill="#B2947C"/>
<path d="M18.5508 24.8008L24.8828 28.3984" stroke="#563428" stroke-width="0.625" stroke-miterlimit="10" stroke-linecap="round"/>
<path d="M33.9336 23.207L25.1719 28.3984" stroke="#563428" stroke-width="0.4375" stroke-miterlimit="10" stroke-linecap="round"/>
<path d="M35.9336 12.6914L34.3164 11.6328L39.8203 1.88281L41.5 2.83203L35.9336 12.6914Z" fill="#82AEC0"/>
<path d="M43.4258 13.7539C43.9062 13.8945 44.4219 13.6289 44.5703 13.1523C45.8359 9.10938 44.1953 4.71094 40.2265 2.66797C36.2305 0.609381 31.8906 1.96094 29.3633 5.41016C29.0781 5.79688 29.1445 6.33985 29.5039 6.65626C30.3203 7.37891 32.1328 8.73829 35.7461 10.5664C39.5625 12.4961 42.1797 13.3867 43.4258 13.7539Z" fill="#CC2929"/>
<path d="M41.3477 4.02344C41.3477 4.02344 42.3672 2.72266 40.8867 1.89844C39.7344 1.25781 39.0039 2.66016 39.0039 2.66016C38.75 3.125 41.1719 4.34375 41.3477 4.02344ZM13.918 12.7031L8.34375 2.83203L10.0273 1.88281L15.4414 11.4766L13.918 12.7031Z" fill="#82AEC0"/>
<path d="M6.5742 13.7539C6.09373 13.8945 5.57811 13.6289 5.42967 13.1523C4.16405 9.10938 5.80467 4.71094 9.77342 2.66797C13.7695 0.609381 18.1094 1.96094 20.6367 5.41016C20.9219 5.79688 20.8555 6.33985 20.4961 6.65626C19.6797 7.37891 17.8672 8.73829 14.2539 10.5664C10.4375 12.4961 7.8203 13.3867 6.5742 13.7539Z" fill="#CC2929"/>
<path d="M8.65233 4.02344C8.65233 4.02344 7.6328 2.72266 9.11327 1.89844C10.2656 1.25781 10.9961 2.66016 10.9961 2.66016C11.25 3.125 8.82811 4.34375 8.65233 4.02344Z" fill="#82AEC0"/>
<path d="M24.8828 9.07031V3.71094" stroke="#82AEC0" stroke-width="0.46325" stroke-miterlimit="10"/>
<path d="M24.9062 5.61719C23.375 5.61719 21.8398 5.03125 21.8398 5.03125V3.87109C21.8398 3.87109 23.2656 3.23438 24.9805 3.23438C26.6953 3.23438 27.9687 3.87109 27.9687 3.87109V5.03125C27.9727 5.03516 26.4414 5.61719 24.9062 5.61719Z" fill="#82AEC0"/>
<path d="M22.2265 3.82422C22.0586 3.88672 22.043 4.11719 22.1992 4.20703C22.4258 4.33594 22.6953 4.46875 22.789 4.45312C24.0781 4.25391 25.9492 4.35156 27.2422 4.54688C27.332 4.5625 27.5898 4.34375 27.7734 4.17969C27.875 4.08594 27.8515 3.92578 27.7265 3.86719C27.3203 3.68359 26.4023 3.35547 24.9805 3.35547C23.668 3.35547 22.7187 3.63281 22.2265 3.82422Z" fill="#94D1E0"/>
<path d="M37.1328 3.08598C37.2539 3.50004 36.8086 3.83988 36.4492 4.07816C35.5432 4.68674 34.8152 5.52528 34.3399 6.50785C34.1133 6.9766 33.8594 7.55082 33.3399 7.62504C33.1328 7.65238 32.9297 7.58988 32.7344 7.51957C32.4336 7.41019 32.1406 7.28519 31.8555 7.14066C31.5156 6.96879 31.168 6.75004 31.0117 6.40238C30.8086 5.94535 31 5.40629 31.2735 4.98441C31.9258 3.98832 32.9883 3.37113 34.0821 2.96488C34.7422 2.71879 36.8047 1.96488 37.1328 3.08598ZM10.2071 6.37894C10.461 6.90629 10.7461 7.41801 11.0625 7.91019C11.4492 8.51176 11.8985 9.18363 11.7344 9.87895C11.543 10.6758 10.6602 11.0586 9.88283 11.3243C9.48439 11.461 9.08986 11.5977 8.69143 11.7344C8.48049 11.8086 8.25783 11.8829 8.03518 11.8711C7.68361 11.8555 7.36721 11.6329 7.16799 11.3477C6.96486 11.0625 6.8633 10.7188 6.78518 10.3789C6.49221 9.07035 6.5508 7.68363 6.95314 6.40238C7.18752 5.66801 7.55471 4.89457 8.38674 4.83598C9.39846 4.76566 9.82814 5.58988 10.2071 6.37894Z" fill="#FF4638"/>
</svg>
