<svg width="50" height="50" viewBox="0 0 50 50" fill="none" xmlns="http://www.w3.org/2000/svg">
<path d="M1.5625 1.5625H48.4375V48.4375H1.5625V1.5625Z" fill="white"/>
<path d="M48.4375 9.51172H2.17578M48.4375 17.0586H2.13672M48.4375 24.6055H2.09375M48.4375 32.1523H2.05469M48.4375 39.7031H2.01172" stroke="#B0BEC5" stroke-width="0.25" stroke-miterlimit="10"/>
<path d="M15.125 47.6211H8.55078V21.6328C8.55078 21.1016 8.98047 20.6719 9.51172 20.6719H14.1641C14.6953 20.6719 15.125 21.1016 15.125 21.6328V47.6211Z" fill="#9CCC65"/>
<path d="M28.2891 47.6211H21.7109V29.2344C21.7109 28.7031 22.1406 28.2734 22.6719 28.2734H27.3242C27.8555 28.2734 28.2852 28.7031 28.2852 29.2344V47.6211H28.2891Z" fill="#F44336"/>
<path d="M40.4844 47.6211H35.832C35.3008 47.6211 34.8711 47.1914 34.8711 46.6602V10.1016C34.8711 9.57031 35.3008 9.14062 35.832 9.14062H40.4844C41.0156 9.14062 41.4453 9.57031 41.4453 10.1016V46.6602C41.4453 47.1914 41.0156 47.6211 40.4844 47.6211Z" fill="#0091EA"/>
<path d="M48.4375 46.875H3.125V1.5625H1.5625V48.4375H48.4375V46.875Z" fill="#B0BEC5"/>
<path d="M47.6562 2.34375V47.6562H2.34375V2.34375H47.6562ZM48.4375 1.5625H1.5625V48.4375H48.4375V1.5625Z" fill="#B0BEC5"/>
</svg>
