<svg width="25" height="25" viewBox="0 0 25 25" fill="none" xmlns="http://www.w3.org/2000/svg">
<g clip-path="url(#clip0_116_146)">
<path d="M22.7461 0.773438H2.43359C1.57031 0.773438 0.871094 1.47266 0.871094 2.33594V22.6484C0.871094 23.5117 1.57031 24.2109 2.43359 24.2109H22.7461C23.6094 24.2109 24.3086 23.5117 24.3086 22.6484V2.33594C24.3086 1.47266 23.6094 0.773438 22.7461 0.773438Z" fill="#689F38"/>
<path d="M21.5156 0.773438H2.33594C1.94831 0.776249 1.57735 0.931483 1.30325 1.20559C1.02914 1.47969 0.87391 1.85065 0.871098 2.23828V21.3594C0.869145 22.168 1.52344 22.8223 2.33204 22.8242H21.4961C22.3047 22.8262 22.959 22.1719 22.9609 21.3633V2.23828C22.9785 1.44727 22.3496 0.791016 21.5586 0.773438H21.5156Z" fill="#7CB342"/>
<path opacity="0.3" d="M7.84375 2.51171C7.84375 2.0625 7.53125 1.92578 5.73438 1.98437C4.23047 2.04296 3.48828 2.21875 3.03906 2.76562C2.58984 3.3125 2.47266 4.42578 2.45312 5.7539C2.45312 6.6914 2.45312 7.57031 2.94141 7.57031C3.60547 7.57031 3.60547 6.02734 4.15234 5.16796C5.20703 3.46875 7.84375 3.09765 7.84375 2.51171Z" fill="white"/>
<path d="M8.44922 21.3789C8.07281 21.3894 7.70323 21.2769 7.39657 21.0584C7.08991 20.8398 6.86291 20.5272 6.75 20.168L3.80079 11.2813C3.51563 10.3418 4.04688 9.34766 4.98633 9.06251C5.89454 8.78711 6.85938 9.27344 7.17969 10.168L9.09375 15.9297L18.293 4.28907C18.9023 3.51758 20.0215 3.38672 20.793 3.9961C21.5645 4.60547 21.6953 5.72461 21.0859 6.4961L9.83594 20.6953C9.6713 20.9064 9.46104 21.0776 9.2209 21.196C8.98076 21.3144 8.71695 21.3769 8.44922 21.3789Z" fill="#FBF9F9"/>
</g>
<defs>
<clipPath id="clip0_116_146">
<rect width="25" height="25" fill="white"/>
</clipPath>
</defs>
</svg>
