<svg width="50" height="50" viewBox="0 0 50 50" fill="none" xmlns="http://www.w3.org/2000/svg">
<path d="M34.7754 3.18066L39.6582 5.62207C39.4434 6.46973 38.7598 7.81641 37.6953 9.26367C36.3965 11.0352 34.6094 13.0176 32.7734 14.8438C30.9473 16.6797 29.0527 18.3789 27.5488 19.5996C26.7969 20.2051 26.1328 20.7031 25.6348 21.0254C25.3906 21.1816 25.1855 21.3086 25.0488 21.377C25.0195 21.3867 25.0195 21.3867 25 21.3867C24.9805 21.3867 24.9805 21.3867 24.9512 21.377C24.8145 21.3086 24.6094 21.1816 24.3652 21.0254C23.8672 20.7031 23.2031 20.2051 22.4512 19.5996C20.9473 18.3789 19.0527 16.6797 17.2266 14.8438C15.3906 13.0176 13.6035 11.0352 12.3047 9.26465C11.2402 7.81641 10.5566 6.46973 10.3418 5.62207L15.2246 3.18066C16.6504 6.08398 18.0859 9.24902 19.541 11.9727C21.123 14.9512 22.627 17.4121 24.6094 18.4082L25 18.6035L25.3906 18.4082C27.373 17.4121 28.877 14.9512 30.459 11.9727C31.9141 9.24902 33.3496 6.08301 34.7754 3.18066ZM25 13.8086C25.7715 13.8086 26.5137 13.877 27.2168 13.9941C26.416 15.1855 25.6543 16.0938 25 16.582C24.3457 16.0938 23.584 15.1855 22.7832 13.9941C23.4863 13.877 24.2285 13.8086 25 13.8086ZM33.1152 16.9824C35.3906 19.1992 36.6211 22.3145 36.6211 25.4297V25.4883C33.3984 24.3164 29.209 23.7695 25 23.7695C20.791 23.7695 16.6016 24.3164 13.3789 25.4883V25.4297C13.3789 22.3145 14.6094 19.1992 16.8848 16.9824C18.4668 18.5059 20.0293 19.8926 21.3477 20.957C22.1289 21.5918 22.8223 22.1191 23.3984 22.4902C23.6816 22.6855 23.9355 22.832 24.1797 22.9492C24.4238 23.0664 24.6094 23.1836 25 23.1836C25.3906 23.1836 25.5762 23.0664 25.8203 22.9492C26.0645 22.832 26.3184 22.6855 26.6016 22.4902C27.1777 22.1191 27.8711 21.5918 28.6523 20.957C29.9707 19.8926 31.5332 18.5059 33.1152 16.9824ZM39.3945 20.7227C41.4062 22.6758 42.4707 23.2812 45.625 24.3652C44.3945 26.7969 43.0957 28.9648 40.0586 30.3418L38.3691 25.2637C38.3594 24.707 38.3203 24.1504 38.2422 23.5938L39.3945 20.7227ZM10.6055 20.7227L11.7578 23.5938C11.6797 24.1504 11.6406 24.707 11.6309 25.2637L9.94141 30.3418C6.90332 28.9648 5.60449 26.7969 4.37402 24.3652C7.52832 23.2812 8.59277 22.6758 10.6055 20.7227ZM25.8789 25.5371C30.2832 25.625 34.5996 26.3867 37.3242 27.7051L40.0977 36.0059L35.8691 34.0723C35.4883 31.7676 35.2539 29.5508 35.2539 28.3594V26.9336L33.9844 27.5684C31.2598 28.9355 28.5645 29.6777 25.8789 29.8145V25.5371ZM24.1211 25.5371V29.8145C21.4355 29.6777 18.7402 28.9355 16.0156 27.5684L14.7461 26.9336V28.3594C14.7461 29.5508 14.5117 31.7676 14.1309 34.0723L9.90234 36.0059L12.6758 27.7051C15.4004 26.3867 19.7168 25.625 24.1211 25.5371ZM33.5547 29.7168C33.6816 31.5332 34.0234 33.9648 34.4922 36.3184C34.7852 37.8223 35.1367 39.2676 35.5176 40.459C35.8984 41.6602 36.2305 42.5879 36.875 43.2422L37.1387 43.4961H37.5C38.877 43.4961 41.2988 43.6133 42.6465 44.4336C42.4707 44.5703 42.1777 44.7461 41.7969 44.9121C40.8789 45.3027 39.4629 45.6641 37.7441 45.9473C34.3066 46.5234 29.6484 46.8164 25 46.8164C20.3516 46.8164 15.6934 46.5234 12.2559 45.9473C10.5371 45.6641 9.12012 45.3027 8.20215 44.9121C7.82129 44.7461 7.52832 44.5703 7.35254 44.4336C8.69043 43.6133 11.123 43.4961 12.5 43.4961H12.8613L13.125 43.2422C13.7695 42.5879 14.1016 41.6602 14.4824 40.459C14.8633 39.2676 15.2148 37.8223 15.5078 36.3184C15.9766 33.9648 16.3184 31.5332 16.4453 29.7168C22.1094 32.1875 27.8906 32.1875 33.5547 29.7168ZM13.75 36.1816C13.4668 37.5586 13.1445 38.877 12.8125 39.9316C12.5293 40.8203 12.2168 41.4258 12.0215 41.7383C10.9277 41.7285 9.31543 41.7383 7.82129 42.2363L9.13965 38.291L13.75 36.1816ZM36.25 36.1816L40.8594 38.291L42.1777 42.2363C40.6836 41.7383 39.0723 41.7285 37.9785 41.7383C37.7832 41.4258 37.4707 40.8203 37.1875 39.9316C36.8555 38.877 36.5332 37.5586 36.25 36.1816Z" fill="#1CBECB"/>
</svg>
