<svg width="50" height="50" viewBox="0 0 50 50" fill="none" xmlns="http://www.w3.org/2000/svg">
<path d="M48.3867 46.4062L45.9727 39.9648L44.3125 35.5312C43.9375 34.3867 43.8672 33.9141 43.2305 33.2773L38.6133 28.6602L28.668 38.6055L33.2891 43.2266C33.668 43.6055 34.3945 43.9297 35.5391 44.3047L39.9727 45.9648L46.4141 48.3789C47.6289 48.7734 48.7813 47.6211 48.3867 46.4062Z" fill="#FFECB3"/>
<path d="M46.4141 48.3789L41.0781 46.3789C41.0781 46.3789 43.2812 46.2539 44.7695 44.7656C46.2578 43.2773 46.3867 41.0703 46.3867 41.0703L48.3867 46.4063C48.7812 47.6211 47.6289 48.7734 46.4141 48.3789Z" fill="#616161"/>
<path d="M16.8672 6.91796L14.7539 14.4531L6.92577 16.8594L2.50389 12.4414C1.28514 11.2226 0.707015 8.79296 3.93748 5.56249L5.8867 3.61327C8.67967 0.820301 11.2305 1.27733 12.4492 2.49608L16.8672 6.91796Z" fill="#EF5350"/>
<path d="M13.3867 17.4375L17.4375 13.3867L40.9648 36.9141C40.9648 36.9141 41.4453 38.9141 40.2227 40.1367C39 41.3594 36.9141 40.9648 36.9141 40.9648L13.3867 17.4375Z" fill="#FFC107"/>
<path d="M10.4414 20.3828L33.3242 43.2656C37.0195 44.0703 36.8594 40.9102 36.8594 40.9102L13.3867 17.4375L10.4414 20.3828Z" fill="#FFA000"/>
<path d="M17.4414 13.3828L40.9141 36.8555C40.9141 36.8555 45.1406 36.8555 43.207 33.2578L20.3867 10.4375L17.4414 13.3828Z" fill="#FDD835"/>
<path d="M36.8242 41.4219L13.1484 17.7461L13.6992 17.1953L37.5273 41.0234L36.9141 40.9609L36.8242 41.4219Z" fill="#D1762C"/>
<path d="M41.0586 37.5586L15.6836 12.1836L16.2383 11.6328L41.4219 36.8164L40.9648 36.9102L41.0586 37.5586Z" fill="#F19534"/>
<path opacity="0.2" d="M20.3867 10.4375C20.3867 10.4375 18.25 13.5977 16.4805 15.3867C13.0937 18.8008 10.4414 20.3828 10.4414 20.3828L11.125 21.0664C12.0977 20.6875 14.5859 19.5508 17.0703 17.0703C19.5703 14.5703 20.75 12.1289 21.1445 11.1953L20.3867 10.4375Z" fill="#4E342E"/>
<path d="M9.17576 20.2734C9.39451 20.4922 9.7031 20.5898 10.0078 20.5391C10.0078 20.5391 13.207 19.5625 16.3867 16.3828C19.5664 13.2031 20.6172 10.1055 20.6172 10.1055C20.6679 9.80078 20.5703 9.48828 20.3515 9.26953L17 5.91797C16.8594 5.77735 16.664 5.70313 16.4687 5.72656C16.4023 5.73438 16.3359 5.74219 16.2656 5.75391C16 5.79297 15.789 5.98828 15.7148 6.2461C15.7148 6.2461 14.1836 9.21485 11.6601 11.7344C9.13669 14.2539 6.05857 15.7227 6.05857 15.7227C5.80076 15.793 5.60154 16 5.56248 16.2656V16.2734C5.53123 16.4844 5.60154 16.6953 5.74998 16.8438L9.17576 20.2734Z" fill="#94D1E0"/>
<path d="M7.10701 7.10552C9.39978 4.81268 10.7081 2.40366 10.0293 1.72483C9.35041 1.046 6.94144 2.35442 4.64867 4.64727C2.35591 6.94011 1.04757 9.34913 1.72643 10.028C2.40528 10.7068 4.81425 9.39837 7.10701 7.10552Z" fill="#FF8383"/>
<path d="M16.2539 8.49216C14.9688 10.9531 12.8555 12.9726 10.3399 14.1406C10.1758 14.2148 9.94534 14.2695 9.84768 14.1211C9.77347 14.0039 9.83987 13.8554 9.91409 13.7383C10.2422 13.2304 10.6953 12.8203 11.1328 12.4023C12.2735 11.3086 13.3203 10.1211 14.2617 8.85544C14.7422 8.21091 15.1914 7.54685 15.6133 6.86326C15.8477 6.48826 16.2657 5.69529 16.8008 6.25388C17.2657 6.73435 16.5 8.01951 16.2539 8.49216ZM14.7969 13.0742C14.6953 13.1797 14.5899 13.2851 14.5391 13.4219C14.4883 13.5586 14.5078 13.7344 14.625 13.8203C14.7227 13.8945 14.8555 13.8867 14.9766 13.8672C15.6524 13.7617 16.25 13.3789 16.7774 12.9492C17.9297 12.0156 18.9063 10.7187 19 9.23826C19.0117 9.06247 19.0078 8.87888 18.9297 8.72263C18.4336 7.74216 17.3828 9.93357 17.1758 10.2422C16.4844 11.2695 15.6602 12.1914 14.7969 13.0742Z" fill="#B9E4EA"/>
</svg>
