<svg width="24" height="24" viewBox="0 0 24 24" fill="none" xmlns="http://www.w3.org/2000/svg">
<path d="M6.75 1.5C6.15326 1.5 5.58097 1.73705 5.15901 2.15901C4.73705 2.58097 4.5 3.15326 4.5 3.75V5.25H18.75V3.75C18.75 3.15326 18.5129 2.58097 18.091 2.15901C17.669 1.73705 17.0967 1.5 16.5 1.5H6.75ZM6.75 22.5C6.15326 22.5 5.58097 22.2629 5.15901 21.841C4.73705 21.419 4.5 20.8467 4.5 20.25V18.75H18.75V20.25C18.75 20.8467 18.5129 21.419 18.091 21.841C17.669 22.2629 17.0967 22.5 16.5 22.5H6.75Z" fill="#7167A4"/>
<path d="M4.5 4.5H18.75V19.5H4.5V4.5Z" fill="#321B41"/>
<path d="M10.125 7.5C10.125 7.30109 10.204 7.11032 10.3447 6.96967C10.4853 6.82902 10.6761 6.75 10.875 6.75H12.375C12.5739 6.75 12.7647 6.82902 12.9053 6.96967C13.046 7.11032 13.125 7.30109 13.125 7.5V9C13.125 9.19891 13.046 9.38968 12.9053 9.53033C12.7647 9.67098 12.5739 9.75 12.375 9.75H10.875C10.6761 9.75 10.4853 9.67098 10.3447 9.53033C10.204 9.38968 10.125 9.19891 10.125 9V7.5ZM6.375 11.25C6.375 11.0511 6.45402 10.8603 6.59467 10.7197C6.73532 10.579 6.92609 10.5 7.125 10.5H8.625C8.82391 10.5 9.01468 10.579 9.15533 10.7197C9.29598 10.8603 9.375 11.0511 9.375 11.25V12.75C9.375 12.9489 9.29598 13.1397 9.15533 13.2803C9.01468 13.421 8.82391 13.5 8.625 13.5H7.125C6.92609 13.5 6.73532 13.421 6.59467 13.2803C6.45402 13.1397 6.375 12.9489 6.375 12.75V11.25ZM10.875 14.25C10.6761 14.25 10.4853 14.329 10.3447 14.4697C10.204 14.6103 10.125 14.8011 10.125 15V16.5C10.125 16.6989 10.204 16.8897 10.3447 17.0303C10.4853 17.171 10.6761 17.25 10.875 17.25H12.375C12.5739 17.25 12.7647 17.171 12.9053 17.0303C13.046 16.8897 13.125 16.6989 13.125 16.5V15C13.125 14.8011 13.046 14.6103 12.9053 14.4697C12.7647 14.329 12.5739 14.25 12.375 14.25H10.875Z" fill="#00A6ED"/>
<path d="M6.375 7.5C6.375 7.30109 6.45402 7.11032 6.59467 6.96967C6.73532 6.82902 6.92609 6.75 7.125 6.75H8.625C8.82391 6.75 9.01468 6.82902 9.15533 6.96967C9.29598 7.11032 9.375 7.30109 9.375 7.5V9C9.375 9.19891 9.29598 9.38968 9.15533 9.53033C9.01468 9.67098 8.82391 9.75 8.625 9.75H7.125C6.92609 9.75 6.73532 9.67098 6.59467 9.53033C6.45402 9.38968 6.375 9.19891 6.375 9V7.5ZM6.375 15C6.375 14.8011 6.45402 14.6103 6.59467 14.4697C6.73532 14.329 6.92609 14.25 7.125 14.25H8.625C8.82391 14.25 9.01468 14.329 9.15533 14.4697C9.29598 14.6103 9.375 14.8011 9.375 15V16.5C9.375 16.6989 9.29598 16.8897 9.15533 17.0303C9.01468 17.171 8.82391 17.25 8.625 17.25H7.125C6.92609 17.25 6.73532 17.171 6.59467 17.0303C6.45402 16.8897 6.375 16.6989 6.375 16.5V15ZM14.625 10.5C14.4261 10.5 14.2353 10.579 14.0947 10.7197C13.954 10.8603 13.875 11.0511 13.875 11.25V12.75C13.875 12.9489 13.954 13.1397 14.0947 13.2803C14.2353 13.421 14.4261 13.5 14.625 13.5H16.125C16.3239 13.5 16.5147 13.421 16.6553 13.2803C16.796 13.1397 16.875 12.9489 16.875 12.75V11.25C16.875 11.0511 16.796 10.8603 16.6553 10.7197C16.5147 10.579 16.3239 10.5 16.125 10.5H14.625Z" fill="#FF822D"/>
<path d="M13.875 7.5C13.875 7.30109 13.954 7.11032 14.0947 6.96967C14.2353 6.82902 14.4261 6.75 14.625 6.75H16.125C16.3239 6.75 16.5147 6.82902 16.6553 6.96967C16.796 7.11032 16.875 7.30109 16.875 7.5V9C16.875 9.19891 16.796 9.38968 16.6553 9.53033C16.5147 9.67098 16.3239 9.75 16.125 9.75H14.625C14.4261 9.75 14.2353 9.67098 14.0947 9.53033C13.954 9.38968 13.875 9.19891 13.875 9V7.5ZM10.125 11.25C10.125 11.0511 10.204 10.8603 10.3447 10.7197C10.4853 10.579 10.6761 10.5 10.875 10.5H12.375C12.5739 10.5 12.7647 10.579 12.9053 10.7197C13.046 10.8603 13.125 11.0511 13.125 11.25V12.75C13.125 12.9489 13.046 13.1397 12.9053 13.2803C12.7647 13.421 12.5739 13.5 12.375 13.5H10.875C10.6761 13.5 10.4853 13.421 10.3447 13.2803C10.204 13.1397 10.125 12.9489 10.125 12.75V11.25ZM14.625 14.25C14.4261 14.25 14.2353 14.329 14.0947 14.4697C13.954 14.6103 13.875 14.8011 13.875 15V16.5C13.875 16.6989 13.954 16.8897 14.0947 17.0303C14.2353 17.171 14.4261 17.25 14.625 17.25H16.125C16.3239 17.25 16.5147 17.171 16.6553 17.0303C16.796 16.8897 16.875 16.6989 16.875 16.5V15C16.875 14.8011 16.796 14.6103 16.6553 14.4697C16.5147 14.329 16.3239 14.25 16.125 14.25H14.625Z" fill="#FCD53F"/>
</svg>
